<svg width="400" height="437" viewBox="0 0 400 437" fill="none" xmlns="http://www.w3.org/2000/svg">
<g id="Group">
<path id="Vector" d="M380.207 70.5315C372.882 68.0175 365.2 66.6414 358.544 69.2978C351.115 72.2623 344.964 78.0632 342.014 85.8398L295.837 207.572L324.085 71.2208C327.271 55.8423 316.747 40.9178 300.579 37.8874C284.411 34.857 268.721 44.8667 265.536 60.2461L235.046 207.421V28.3817C235.046 12.7064 221.688 0 205.208 0C188.73 0 175.371 12.7064 175.371 28.3809V213.204L139.312 59.8817C135.715 44.5848 119.762 34.9589 103.681 38.3809C87.5992 41.8029 77.4794 56.9769 81.077 72.2737L115.696 219.477L123.364 256.03C125.241 264.983 115.993 272.382 107.042 269.089L41.931 245.135C24.6668 238.983 5.56548 248.201 0.588676 265.086C-1.26412 271.373 1.35398 278.08 7.07302 281.691L136.587 357.863V423.254C136.587 430.528 142.787 436.426 150.435 436.426H271.089L292.322 434.67C299.97 434.67 306.17 430.528 306.17 423.254V381.043L336.866 360.516C346.698 353.941 352.549 343.225 352.55 331.793V220.442L396.301 105.104C401.893 90.3604 395.708 75.8521 380.207 70.5315V70.5315Z" fill="#8C6144"/>
<g id="Group_2">
<path id="Vector_2" d="M380.207 68.7753C372.883 66.2612 365.202 66.645 358.546 69.3004C373.113 75.1004 380.488 90.8161 375.068 105.104L332.139 218.274C331.596 219.708 331.318 221.221 331.318 222.745V331.792C331.318 343.223 325.466 353.94 315.634 360.515L290.821 377.107C287.133 379.574 284.938 383.594 284.938 387.883V423.254C284.938 430.528 278.738 436.426 271.09 436.426H294.17C301.817 436.426 308.017 430.528 308.017 423.254V381.043L338.713 360.516C348.545 353.941 354.396 343.225 354.397 331.793V220.443L398.148 105.105C403.74 90.3604 395.708 74.0958 380.207 68.7753V68.7753Z" fill="#7D5233"/>
</g>
<path id="Vector_3" d="M194.45 305.884C195.812 307.589 197.877 308.486 199.968 308.486C201.428 308.486 202.899 308.048 204.151 307.144C207.196 304.943 207.789 300.812 205.476 297.916C182.632 269.315 143.274 260.285 123.57 257.488C124.043 263.489 119.587 268.521 113.874 269.647C125.654 270.732 171.175 276.742 194.45 305.884V305.884Z" fill="#7D5233"/>
</g>
</svg>
