<svg width="512" height="512" viewBox="0 0 512 512" fill="none" xmlns="http://www.w3.org/2000/svg">
<g id="hand-rock" clip-path="url(#clip0)">
<path id="Vector" d="M152.746 212.484H149.168C126.578 212.484 108.262 194.168 108.262 171.574V63.3594C108.262 39.7773 127.379 20.6602 150.957 20.6602C174.539 20.6602 193.656 39.7773 193.656 63.3594V171.574C193.656 194.168 175.34 212.484 152.746 212.484Z" fill="#805734"/>
<path id="Vector_2" d="M157.359 512V464.406C157.359 421.879 143.379 380.531 117.57 346.73L92.5781 313.992C73.3906 288.863 63 258.125 63 226.508C63 207.391 64.8047 188.312 68.3867 169.535C69.4141 164.152 70.4414 158.77 71.4648 153.383C75.2852 133.363 93.8789 119.609 114.129 121.941V61.9297L428.617 84.918L449.84 131.156V241.812C449.84 307.316 424.012 370.176 377.961 416.762C371.066 423.734 367.199 433.145 367.199 442.949V512" fill="#805734"/>
<g id="Group">
<path id="Vector_3" d="M129.16 171.574V63.3594C129.16 43.3828 142.879 26.6172 161.406 21.957C158.062 21.1133 154.563 20.6641 150.957 20.6641C127.379 20.6641 108.262 39.7773 108.262 63.3594V171.574C108.262 194.168 126.574 212.484 149.168 212.484H152.746C155.719 212.484 158.617 212.16 161.406 211.559C142.977 207.582 129.16 191.195 129.16 171.574Z" fill="#7D532D"/>
<path id="Vector_4" d="M279.051 78.2227V186.441C279.051 208.02 262.344 225.687 241.164 227.242C229.398 217.695 215.281 210.945 199.809 208.008C195.898 201.75 193.652 194.359 193.652 186.441V78.2227C193.652 54.6484 212.773 35.5273 236.359 35.5273C248.145 35.5273 258.824 40.3008 266.543 48.0352C274.266 55.7656 279.051 66.4336 279.051 78.2227Z" fill="#7D532D"/>
<path id="Vector_5" d="M323.535 227.348H319.957C297.367 227.348 279.051 209.035 279.051 186.441V78.2266C279.051 54.6445 298.168 35.5273 321.746 35.5273C345.328 35.5273 364.445 54.6445 364.445 78.2266V186.441C364.445 209.035 346.129 227.348 323.535 227.348V227.348Z" fill="#7D532D"/>
<path id="Vector_6" d="M408.93 215.051H405.355C382.762 215.051 364.445 196.734 364.445 174.141V103.016C364.445 79.4375 383.562 60.3203 407.145 60.3203C430.723 60.3203 449.84 79.4375 449.84 103.016V174.141C449.84 196.734 431.523 215.051 408.93 215.051V215.051Z" fill="#7D532D"/>
</g>
<path id="Vector_7" d="M279.047 42.6953V150.914C279.047 173.504 260.738 191.82 238.137 191.82H234.566C211.973 191.82 193.656 173.504 193.656 150.914V42.6953C193.656 19.1211 212.77 0 236.352 0C248.148 0 258.816 4.77344 266.539 12.5078C274.27 20.2383 279.047 30.9063 279.047 42.6953Z" fill="#805734"/>
<path id="Vector_8" d="M214.555 150.914V42.6992C214.555 22.7227 228.273 5.95703 246.801 1.29297C243.457 0.453125 239.961 0.00390625 236.352 0.00390625C212.773 0.00390625 193.656 19.1172 193.656 42.6992V150.914C193.656 173.508 211.973 191.824 234.566 191.824H238.141C241.113 191.824 244.012 191.5 246.801 190.895C228.371 186.922 214.555 170.535 214.555 150.914Z" fill="#7D532D"/>
<path id="Vector_9" d="M323.535 191.82H319.957C297.367 191.82 279.051 173.508 279.051 150.914V42.6992C279.051 19.1172 298.168 0 321.746 0C345.328 0 364.445 19.1172 364.445 42.6992V150.914C364.445 173.508 346.129 191.82 323.535 191.82V191.82Z" fill="#805734"/>
<path id="Vector_10" d="M299.949 150.914V42.6992C299.949 22.7227 313.668 5.95703 332.199 1.29297C328.852 0.453125 325.355 0.00390625 321.75 0.00390625C298.168 0.00390625 279.051 19.1172 279.051 42.6992V150.914C279.051 173.508 297.367 191.824 319.961 191.824H323.539C326.512 191.824 329.406 191.5 332.199 190.895C313.766 186.922 299.949 170.535 299.949 150.914V150.914Z" fill="#7D532D"/>
<path id="Vector_11" d="M408.93 179.523H405.355C382.762 179.523 364.445 161.207 364.445 138.613V67.4922C364.445 43.9102 383.562 24.793 407.145 24.793C430.723 24.793 449.84 43.9102 449.84 67.4922V138.613C449.84 161.207 431.523 179.523 408.93 179.523V179.523Z" fill="#805734"/>
<path id="Vector_12" d="M385.344 138.613V67.4922C385.344 47.5156 399.062 30.75 417.59 26.0859C414.246 25.2461 410.75 24.793 407.145 24.793C383.562 24.793 364.445 43.9102 364.445 67.4922V138.613C364.445 161.207 382.762 179.523 405.355 179.523H408.93C411.906 179.523 414.801 179.199 417.59 178.598C399.16 174.621 385.344 158.234 385.344 138.613Z" fill="#7D532D"/>
<path id="Vector_13" d="M279.047 134.313V150.914C279.047 173.504 260.738 191.82 238.137 191.82H234.566C211.973 191.82 193.656 173.504 193.656 150.914V125.125C210.949 125.023 228.223 124.008 245.43 122.066C258.367 120.613 270.645 125.48 279.047 134.313Z" fill="#7D532D"/>
<path id="Vector_14" d="M157.359 512V464.406C157.359 421.879 143.379 380.531 117.57 346.73L92.5781 313.992C73.3906 288.863 63 258.125 63 226.508C63 207.391 64.8047 188.312 68.3867 169.535C69.4141 164.152 70.4414 158.77 71.4648 153.383C75.2852 133.363 93.8789 119.609 114.129 121.941C150.805 126.16 187.844 126.203 224.527 122.066C245.406 119.711 264.57 133.84 268.508 154.48L268.66 155.277C273.055 178.309 256.891 200.16 233.59 202.785C211.711 205.25 189.727 206.441 167.742 206.359" fill="#805734"/>
<path id="Vector_15" d="M162.504 346.727C188.312 380.527 202.297 421.875 202.297 464.402V511.996H157.363V464.402C157.363 421.875 143.383 380.527 117.574 346.727L92.582 313.988C73.3984 288.859 63 258.117 63 226.512C63 216.949 63.4492 207.398 64.3477 197.891C65.2461 188.383 66.6055 178.914 68.3906 169.531C69.4141 164.152 70.4414 158.77 71.4727 153.379C75.2891 133.359 93.8867 119.605 114.125 121.938C122.977 122.949 131.859 123.734 140.742 124.258C128.516 128.949 119.008 139.699 116.406 153.379C115.371 158.77 114.348 164.152 113.32 169.531C109.738 188.309 107.93 207.391 107.93 226.512C107.93 242.32 110.531 257.898 115.527 272.684C120.523 287.461 127.918 301.418 137.512 313.988L162.504 346.727Z" fill="#7D532D"/>
<path id="Vector_16" d="M275.875 307.859C271.547 307.859 268.039 304.348 268.039 300.02C268.039 274.016 256.445 249.707 236.23 233.332C225.25 224.418 212.152 218.328 198.348 215.707C193.082 214.703 187.652 214.191 182.211 214.191H167.738C163.41 214.191 159.902 210.684 159.902 206.355C159.902 202.027 163.41 198.52 167.738 198.52H182.211C188.637 198.52 195.051 199.121 201.277 200.309C217.613 203.41 233.117 210.621 246.102 221.16C270.004 240.52 283.711 269.266 283.711 300.02C283.711 304.348 280.203 307.859 275.875 307.859Z" fill="#7D532D"/>
</g>
<defs>
<clipPath id="clip0">
<rect width="512" height="512" fill="white"/>
</clipPath>
</defs>
</svg>
