<svg width="536" height="528" viewBox="0 0 536 528" fill="none" xmlns="http://www.w3.org/2000/svg">
<g id="hand-scissors">
<g id="XMLID 876">
<g id="Group">
<path id="XMLID 874" d="M197.576 382.91H332.589V474.445H197.576V382.91Z" fill="#7C5839"/>
<path id="XMLID 873" d="M334.121 258.724H295.83C281.779 258.724 270.389 246.468 270.389 231.349C270.389 216.23 281.779 203.974 295.83 203.974H342.544C358.377 203.974 371.214 217.785 371.214 234.824V290.747C371.214 353.818 323.698 404.947 265.084 404.947C206.47 404.947 158.953 353.818 158.953 290.747V213.233L334.121 258.724Z" fill="#7C5839"/>
<path id="XMLID 872" d="M258.219 213.233L225.966 83.7109C222.784 70.9326 229.831 57.7985 241.707 54.3741C253.582 50.9505 265.788 58.5334 268.971 71.3116L301.224 200.834L284.53 224.932L258.219 213.233Z" fill="#7C5839"/>
<path id="XMLID 871" d="M346.46 204.268L376.48 83.7109C379.662 70.9326 372.615 57.7985 360.739 54.3741C348.864 50.9505 336.658 58.5334 333.476 71.3116L301.222 200.834L346.46 204.268Z" fill="#7C5839"/>
<path id="XMLID 870" d="M222.51 290.183C211.863 296.798 198.248 292.873 192.101 281.416L161.938 225.199C155.791 213.743 159.439 199.093 170.086 192.479C180.733 185.864 194.348 189.79 200.495 201.246L230.658 257.463C236.805 268.92 233.157 283.569 222.51 290.183Z" fill="#7C5839"/>
<path id="XMLID 869" d="M261.067 266.23C250.42 272.845 236.805 268.92 230.658 257.463L200.495 201.246C194.348 189.79 197.996 175.14 208.643 168.525C219.29 161.911 232.905 165.837 239.052 177.293L269.215 233.509C275.361 244.967 271.714 259.616 261.067 266.23Z" fill="#7C5839"/>
</g>
<g id="XMLID 29">
<path id="XMLID 45" d="M362.797 46.111C346.707 41.4727 330.107 51.7837 325.796 69.0977L301.222 167.782L276.649 69.0977C272.338 51.7837 255.74 41.4727 239.648 46.111C231.853 48.3584 225.338 53.7376 221.303 61.2572C217.269 68.7777 216.197 77.5378 218.286 85.9248L237.454 162.901C234.517 160.623 231.194 158.909 227.591 157.87C219.797 155.624 211.656 156.776 204.667 161.118C197.678 165.459 192.679 172.47 190.591 180.857C190.475 181.322 190.372 181.788 190.276 182.256C182.478 179.616 173.718 180.357 166.098 185.091C156.511 191.048 151.104 201.844 151 212.973C150.999 213.062 151.001 290.748 151.001 290.748C151.001 326.651 165.596 359.945 189.624 382.805V474.446C189.624 479.171 193.183 483.001 197.574 483.001C201.965 483.001 205.525 479.171 205.525 474.446V395.449C212.272 399.901 219.504 403.654 227.173 406.56C228.047 406.891 228.938 407.049 229.814 407.049C233.093 407.049 236.162 404.85 237.313 401.333C238.771 396.877 236.597 391.992 232.455 390.423C193.245 375.562 166.902 335.506 166.902 290.748V251.605L185.203 285.716C190.792 296.133 200.968 301.963 211.417 301.963C216.539 301.963 221.727 300.563 226.473 297.615C234.104 292.874 239.085 285.065 240.852 276.464C243.798 277.462 246.879 277.99 249.986 277.99C255.108 277.99 260.295 276.59 265.041 273.642C270.033 270.541 274.003 266.073 276.628 260.719C281.504 264.42 287.333 266.753 293.637 267.194C286.43 276.007 282.046 287.554 282.046 300.189C282.046 304.914 285.605 308.744 289.996 308.744C294.387 308.744 297.946 304.914 297.946 300.189C297.946 282.043 311.666 267.28 328.529 267.28H334.12C338.511 267.28 342.07 263.45 342.07 258.726C342.07 254.001 338.511 250.171 334.12 250.171H295.828C286.184 250.171 278.338 241.728 278.338 231.35C278.338 220.973 286.184 212.53 295.828 212.53H342.542C353.968 212.53 363.262 222.531 363.262 234.825V290.749C363.262 335.504 336.921 375.56 297.714 390.422C293.573 391.992 291.398 396.876 292.857 401.332C294.009 404.848 297.077 407.047 300.356 407.047C301.232 407.047 302.124 406.89 302.998 406.559C310.664 403.652 317.895 399.9 324.64 395.45V474.447C324.64 479.172 328.199 483.002 332.59 483.002C336.981 483.002 340.541 479.172 340.541 474.447V382.805C364.568 359.945 379.164 326.65 379.164 290.747V234.824C379.164 218.283 369.639 204.1 356.185 198.266L384.16 85.9248C388.471 68.6109 378.889 50.7503 362.797 46.111V46.111ZM225.191 273.447C224.201 277.419 221.834 280.74 218.523 282.797C211.69 287.042 202.92 284.514 198.974 277.161L168.811 220.944C166.9 217.382 166.393 213.232 167.382 209.259C168.372 205.287 170.739 201.967 174.05 199.909C176.298 198.513 178.755 197.849 181.181 197.849C186.131 197.849 190.951 200.612 193.598 205.545L223.762 261.762C225.672 265.324 226.18 269.474 225.191 273.447ZM263.759 249.473C262.77 253.446 260.402 256.766 257.092 258.823C250.258 263.068 241.489 260.54 237.543 253.187L207.38 196.971C205.469 193.408 204.961 189.258 205.951 185.286C206.941 181.313 209.308 177.993 212.619 175.935C214.867 174.539 217.324 173.875 219.75 173.875C224.699 173.875 229.52 176.638 232.168 181.571L262.331 237.788C264.241 241.35 264.749 245.5 263.759 249.473V249.473ZM267.263 212.763L265.526 209.525L233.645 81.496C231.603 73.2946 236.143 64.834 243.765 62.6371C251.387 60.4402 259.248 65.3242 261.291 73.5256L291.714 195.701C281.354 197.079 272.447 203.572 267.263 212.763V212.763ZM368.801 81.4969L340.433 195.419H310.803L341.156 73.5256C342.146 69.5528 344.513 66.2318 347.824 64.1752C351.135 62.1178 354.991 61.5729 358.683 62.6371C362.375 63.7022 365.461 66.2498 367.373 69.812C369.283 73.3742 369.79 77.5241 368.801 81.4969V81.4969Z" fill="#754D2B"/>
<path id="XMLID 841" d="M265.086 396.392C262.995 396.392 260.944 397.307 259.465 398.899C257.986 400.49 257.136 402.697 257.136 404.947C257.136 407.197 257.986 409.404 259.465 410.995C260.944 412.586 262.995 413.501 265.086 413.501C267.177 413.501 269.228 412.586 270.707 410.995C272.185 409.404 273.036 407.197 273.036 404.947C273.036 402.697 272.185 400.49 270.707 398.899C269.228 397.307 267.176 396.392 265.086 396.392Z" fill="#754D2B"/>
</g>
</g>
</g>
</svg>
