<svg width="594" height="558" viewBox="0 0 594 558" fill="none" xmlns="http://www.w3.org/2000/svg">
<g id="paper">
<g id="Group">
<g id="Group_2">
<path id="Vector" fill-rule="evenodd" clip-rule="evenodd" d="M456.399 382.781V150.8V148.382V147.576C456.399 146.074 455.732 145.824 453.325 143.572L393.853 89.1981C391.041 86.6404 390.577 86.001 388.924 86.001H384.864H142.423C139.436 86.001 137 88.336 137 91.1997V466.761C137 469.625 139.436 471.987 142.423 471.987H450.976C453.963 471.987 456.399 469.625 456.399 466.761V382.781Z" fill="#EDF3F4"/>
</g>
<g id="Group_3">
<path id="Vector_2" fill-rule="evenodd" clip-rule="evenodd" d="M384.98 137.567C384.98 149.104 395.998 148.381 401.305 148.381H456.399V147.575C456.399 146.073 455.732 145.823 453.325 143.571L393.853 89.1971C391.041 86.6394 390.577 86 388.924 86H384.864L384.98 137.567Z" fill="white"/>
</g>
<g id="Group_4">
<path id="Vector_3" fill-rule="evenodd" clip-rule="evenodd" d="M453.325 143.572L393.853 89.1981C391.041 86.6404 390.577 86.001 388.924 86.001H384.864L384.98 137.567C384.98 149.104 395.998 148.381 401.305 148.381H456.399V147.575C456.399 146.074 455.732 145.824 453.325 143.572Z" fill="#B5C4CF"/>
</g>
</g>
</g>
</svg>
