<svg width="512" height="512" viewBox="0 0 512 512" fill="none" xmlns="http://www.w3.org/2000/svg">
<g id="rock" clip-path="url(#clip0)">
<path id="Vector" d="M502.001 287.737V196.454L446.241 156.927L422.001 193.999L502.001 287.737Z" fill="#6E6E6E"/>
<g id="Group">
<path id="Vector_2" d="M10.645 251.772L10.001 411.779L10.108 411.998L57.001 330.999L10.645 251.772Z" fill="#E4E4E4"/>
<path id="Vector_3" d="M268.001 99.999L270.493 10.301L188.001 59.32L139.535 146.435L198.001 149.999L268.001 99.999Z" fill="#E4E4E4"/>
</g>
<path id="Vector_4" d="M502.001 287.737L422.001 193.999L446.241 156.927L417.001 79.769L270.493 10.301L268.001 99.999L198.001 149.999L139.535 146.435L10.645 251.772L57.001 330.999L10.108 411.998L54.001 501.999L141.001 482.752L200.001 501.999H255.696L364.001 456.999L451.093 500.131L502.001 412.982V287.737Z" fill="#A8A89E"/>
<path id="Vector_5" d="M255.696 501.999H450.001L451.093 500.131L364.001 456.999L255.696 501.999Z" fill="#6E6E6E"/>
<path id="Vector_6" d="M507.784 188.296L454.28 150.369L426.359 76.245C425.449 73.83 423.641 71.86 421.313 70.747L275.313 0.975988C272.298 -0.463012 268.763 -0.304012 265.89 1.40399L182.892 50.723C181.352 51.638 180.087 52.949 179.227 54.52L133.163 138.726L3.67401 244.554C1.34901 246.454 0.00100708 249.296 0.00100708 252.298V411.779C0.00100708 413.298 0.347007 414.797 1.01301 416.162L1.11901 416.38L45.013 506.382C46.715 509.872 50.239 512 53.998 512C54.714 512 140.495 493.105 140.495 493.105L196.899 511.505C197.9 511.832 198.947 511.998 200.001 511.998H450.001C453.555 511.998 456.842 510.111 458.635 507.043L510.635 418.025C511.529 416.494 512 414.754 512 412.981V287.737V196.454C512.001 193.212 510.429 190.171 507.784 188.296ZM195.461 66.519L259.992 28.173L258.143 94.752L195.072 139.802L156.654 137.459L195.461 66.519ZM20.001 287.565L45.431 331.026L20.001 374.95V287.565V287.565ZM305.827 491.999L363.638 467.978L412.141 491.999H305.827ZM492.001 410.275L447.166 487.027L368.439 448.038C365.85 446.756 362.832 446.656 360.164 447.765L253.702 492H201.591L144.103 473.246C142.404 472.692 140.587 472.604 138.841 472.989L59.535 490.534L21.43 412.4C21.43 412.4 66.078 335.22 66.247 334.811C67.428 331.947 67.223 328.666 65.633 325.949L23.595 254.103L142.833 156.654C142.833 156.654 197.39 159.98 197.393 159.981C199.709 160.122 201.904 159.41 203.814 158.137L273.814 108.137C276.362 106.317 277.911 103.408 277.998 100.278L280.078 25.421L409.061 87.058L434.982 155.873L413.631 188.527C411.202 192.242 411.512 197.115 414.394 200.491L492.001 291.424V410.275ZM492.001 260.615L434.469 193.204L448.929 171.09L492.001 201.623V260.615Z" fill="black"/>
<path id="Vector_7" d="M231.797 345.99C231.785 345.932 231.768 345.877 231.755 345.819C230.821 341.637 227.017 338.355 222.756 338.034C222.707 338.03 132.576 332.506 132.576 332.506L124.277 281.959L192.976 260.546C197.638 259.093 200.568 254.486 199.909 249.648C199.909 249.648 193.921 205.739 193.909 205.648C192.211 193.195 172.338 195.481 174.093 208.35L178.95 243.969L158.768 250.259C158.768 250.259 153.836 224.188 153.826 224.14C151.501 211.849 131.758 215.088 134.175 227.858L139.547 256.251L111.479 264.999C111.479 264.999 80.081 264.999 80.001 264.999C67.223 264.999 67.05 284.999 80.001 284.999H104.509L113.604 340.394C113.604 340.394 77.184 412.276 77.081 412.479C71.338 423.815 89.079 433.052 94.922 421.519L119.966 372.09C119.966 372.09 130.185 421.907 130.206 422.008C132.74 434.361 152.408 430.711 149.798 417.99L136.421 352.778L206.205 357.051C206.205 357.051 175.125 418.394 175.081 418.48C169.425 429.644 187.098 439.016 192.922 427.519L217.966 378.09C217.966 378.09 228.182 427.89 228.206 428.008C230.787 440.588 250.4 436.675 247.798 423.99L231.797 345.99Z" fill="black"/>
<path id="Vector_8" d="M363.111 178.28C358.321 181.02 356.651 187.14 359.391 191.93L403.661 269.51L378.771 288.17L358.001 283.13C358.001 283.13 358.001 251.1 358.001 251C358.001 238.18 338.001 238.05 338.001 251V284.35L309.761 296.17C309.761 296.17 296.981 270.61 296.941 270.53C291.251 259.14 273.251 267.87 279.061 279.47L296.061 313.47C298.411 318.18 304.011 320.26 308.861 318.22L338.001 306.03V344.77L308.891 385.15C307.511 387.06 306.861 389.39 307.031 391.73C307.031 391.73 310.021 432.59 310.031 432.73C310.951 445.39 330.921 444.2 329.971 431.27L327.241 393.9L345.771 368.19L356.811 393.94C357.161 394.77 357.631 395.54 358.191 396.25C358.191 396.25 382.081 426.11 382.191 426.25C390.111 436.15 405.961 423.94 397.811 413.75L374.661 384.81L358.001 345.949V303.709C358.001 303.709 378.621 308.709 378.641 308.719C381.331 309.369 384.651 308.759 387.001 306.999L413.651 287.009L451.581 353.469C454.728 358.967 460.608 359.193 464.934 356.695C469.263 354.194 472.035 348.964 468.95 343.558C468.607 342.956 376.761 182.01 376.761 182.01C374.021 177.222 367.723 175.642 363.111 178.28Z" fill="black"/>
<path id="Vector_9" d="M348.001 162C353.524 162 358.001 157.523 358.001 152C358.001 146.477 353.524 142 348.001 142C342.478 142 338.001 146.477 338.001 152C338.001 157.523 342.478 162 348.001 162Z" fill="black"/>
</g>
<defs>
<clipPath id="clip0">
<rect width="512" height="512" fill="white"/>
</clipPath>
</defs>
</svg>
