<svg width="512" height="512" viewBox="0 0 512 512" fill="none" xmlns="http://www.w3.org/2000/svg">
<g id="Vector" filter="url(#filter0_d)">
<path id="Vector_2" d="M507.784 188.296L454.28 150.369L426.359 76.245C425.449 73.83 423.641 71.86 421.313 70.747L275.313 0.975988C272.298 -0.463012 268.763 -0.304012 265.89 1.40399L182.892 50.723C181.352 51.638 180.087 52.949 179.227 54.52L133.163 138.726L3.67401 244.554C1.34901 246.454 0.00100708 249.296 0.00100708 252.298V411.779C0.00100708 413.298 0.347007 414.797 1.01301 416.162L1.11901 416.38L45.013 506.382C46.715 509.872 50.239 512 53.998 512C54.714 512 140.495 493.105 140.495 493.105L196.899 511.505C197.9 511.832 198.947 511.998 200.001 511.998H450.001C453.555 511.998 456.842 510.111 458.635 507.043L510.635 418.025C511.529 416.494 512 414.754 512 412.981V287.737V196.454C512.001 193.212 510.429 190.171 507.784 188.296ZM195.461 66.519L259.992 28.173L258.143 94.752L195.072 139.802L156.654 137.459L195.461 66.519ZM20.001 287.565L45.431 331.026L20.001 374.95V287.565V287.565ZM305.827 491.999L363.638 467.978L412.141 491.999H305.827ZM492.001 410.275L447.166 487.027L368.439 448.038C365.85 446.756 362.832 446.656 360.164 447.765L253.702 492H201.591L144.103 473.246C142.404 472.692 140.587 472.604 138.841 472.989L59.535 490.534L21.43 412.4C21.43 412.4 66.078 335.22 66.247 334.811C67.428 331.947 67.223 328.666 65.633 325.949L23.595 254.103L142.833 156.654C142.833 156.654 197.39 159.98 197.393 159.981C199.709 160.122 201.904 159.41 203.814 158.137L273.814 108.137C276.362 106.317 277.911 103.408 277.998 100.278L280.078 25.421L409.061 87.058L434.982 155.873L413.631 188.527C411.202 192.242 411.512 197.115 414.394 200.491L492.001 291.424V410.275ZM492.001 260.615L434.469 193.204L448.929 171.09L492.001 201.623V260.615Z" fill="black"/>
</g>
<defs>
<filter id="filter0_d" x="-3.99899" y="-0.000396729" width="519.999" height="520" filterUnits="userSpaceOnUse" color-interpolation-filters="sRGB">
<feFlood flood-opacity="0" result="BackgroundImageFix"/>
<feColorMatrix in="SourceAlpha" type="matrix" values="0 0 0 0 0 0 0 0 0 0 0 0 0 0 0 0 0 0 127 0"/>
<feOffset dy="4"/>
<feGaussianBlur stdDeviation="2"/>
<feColorMatrix type="matrix" values="0 0 0 0 0 0 0 0 0 0 0 0 0 0 0 0 0 0 0.25 0"/>
<feBlend mode="normal" in2="BackgroundImageFix" result="effect1_dropShadow"/>
<feBlend mode="normal" in="SourceGraphic" in2="effect1_dropShadow" result="shape"/>
</filter>
</defs>
</svg>
