<svg width="469" height="469" viewBox="0 0 469 469" fill="none" xmlns="http://www.w3.org/2000/svg">
<g id="scissors" clip-path="url(#clip0)">
<g id="blades">
<path id="left-blade" d="M284.381 289.951L243.367 313.631L106.103 101.871C92.012 80.364 76.622 12.856 98.89 0L284.381 289.951Z" fill="#E1E6E9"/>
<path id="right-blade" d="M184.922 287.949L225.936 311.629L362.189 101.872C376.281 80.364 391.67 12.856 369.403 0L184.922 287.949Z" fill="#E1E6E9"/>
</g>
<g id="handles">
<path id="left-handle" d="M23.62 337.842C-7.33199 379.531 7.46301 438.196 53.71 460.482C92.52 479.184 139.302 463.015 160.843 425.706C183.76 386.012 218.816 325.294 229.36 307.03C231.085 304.042 230.043 300.254 227.055 298.529L196.66 280.98C193.85 279.358 190.266 280.157 188.411 282.819L152.037 335.027C142.135 322.967 128.687 313.289 111.51 308.344C79.219 299.047 43.651 310.862 23.62 337.842ZM44.788 361.301C58.883 336.888 90.099 328.524 114.512 342.619C138.925 356.714 147.289 387.931 133.195 412.343C119.1 436.756 87.883 445.12 63.47 431.025C39.058 416.931 30.693 385.714 44.788 361.301Z" fill="#5653E5"/>
<path id="right-handle" d="M356.782 308.344C339.606 313.289 326.158 322.967 316.255 335.027L279.881 282.819C278.026 280.157 274.442 279.358 271.632 280.98L241.237 298.529C238.249 300.254 237.207 304.042 238.932 307.03C249.476 325.294 284.532 386.012 307.449 425.706C328.989 463.015 375.772 479.184 414.582 460.482C460.829 438.196 475.624 379.531 444.672 337.842C424.641 310.862 389.073 299.047 356.782 308.344ZM404.822 431.025C380.409 445.12 349.193 436.755 335.098 412.342C321.003 387.929 329.368 356.712 353.781 342.618C378.194 328.523 409.41 336.888 423.505 361.3C437.6 385.714 429.235 416.931 404.822 431.025Z" fill="#5653E5"/>
</g>
<path id="circle" d="M233.903 261.932C240.8 261.932 246.391 256.341 246.391 249.444C246.391 242.547 240.8 236.956 233.903 236.956C227.006 236.956 221.415 242.547 221.415 249.444C221.415 256.341 227.006 261.932 233.903 261.932Z" fill="#64798A"/>
</g>
<defs>
<clipPath id="clip0">
<rect width="468.293" height="468.293" fill="white"/>
</clipPath>
</defs>
</svg>
